<svg height="512" viewBox="0 0 128 128" width="512" xmlns="http://www.w3.org/2000/svg"><g><g><path d="m8.687 32.189h83.133v17.25h-83.133z" fill="#fff5f5"/><path d="m31.75 71.752a6.006 6.006 0 0 0 -6 6v10.371a6.006 6.006 0 0 0 6 6h24.75v-11.185h15.75v11.185h44.25v-22.371z" fill="#fff5f5"/><path d="m91.82 21.877h9.813a5 5 0 0 1 5 5v27.875a5 5 0 0 1 -5 5h-9.813a0 0 0 0 1 0 0v-37.875a0 0 0 0 1 0 0z" fill="#364251"/><path d="m3.75 21.877h88.07a0 0 0 0 1 0 0v10.312a0 0 0 0 1 0 0h-88.07a2 2 0 0 1 -2-2v-6.312a2 2 0 0 1 2-2z" fill="#fd3"/><path d="m3.75 49.439h88.07a0 0 0 0 1 0 0v10.313a0 0 0 0 1 0 0h-88.07a2 2 0 0 1 -2-2v-6.313a2 2 0 0 1 2-2z" fill="#fd3"/><path d="m74.573 42.565a1.75 1.75 0 0 0 0-3.5h-65.886v3.5z" fill="#efe2dd"/><path d="m72.25 100.064-7.875-3.002-7.875 3.002v-17.126h15.75z" fill="#fd3"/><path d="m120.25 59.752h-88.5a18 18 0 0 0 -18 18v10.371a18 18 0 0 0 18 18h88.5a6 6 0 0 0 6-6 6 6 0 0 0 -6-6h-48v5.941l-7.875-3-7.875 3v-5.941h-24.75a6 6 0 0 1 -6-6v-10.371a6 6 0 0 1 6-6h88.5a6 6 0 0 0 6-6 6 6 0 0 0 -6-6z" fill="#80aaff"/><path d="m40.246 81.188a1.75 1.75 0 1 0 0 3.5h16.254v-1.75h15.75v1.75h44.25v-3.5z" fill="#efe2dd"/></g><g><path d="m68.687 30.44h-2.25a1.75 1.75 0 0 0 0 3.5h2.25a1.75 1.75 0 1 0 0-3.5z"/><path d="m120.25 92.373h-2v-18.873h2a7.751 7.751 0 0 0 4.334-14.176 1.75 1.75 0 0 0 -1.959 2.9 4.25 4.25 0 0 1 -2.375 7.776h-88.5a7.759 7.759 0 0 0 -7.75 7.752v10.371a7.759 7.759 0 0 0 7.75 7.75h23v4.192a1.749 1.749 0 0 0 2.373 1.634l7.252-2.764 7.252 2.764a1.766 1.766 0 0 0 2.373-1.634v-4.192h46.25a4.25 4.25 0 1 1 0 8.5h-88.5a16.269 16.269 0 0 1 -16.25-16.25v-10.371a16.269 16.269 0 0 1 16.25-16.252h81.25a1.75 1.75 0 0 0 0-3.5h-5.455a6.7 6.7 0 0 0 .838-3.25v-27.873a6.758 6.758 0 0 0 -6.75-6.75h-97.883a3.755 3.755 0 0 0 -3.75 3.75v6.313a3.755 3.755 0 0 0 3.75 3.75h3.187v13.75h-3.187a3.755 3.755 0 0 0 -3.75 3.75v6.312a3.755 3.755 0 0 0 3.75 3.748h16.8a19.737 19.737 0 0 0 -8.55 16.252v10.371a19.771 19.771 0 0 0 19.75 19.75h88.5a7.75 7.75 0 0 0 0-15.5zm-88.5 0a4.254 4.254 0 0 1 -4.25-4.25v-10.371a4.254 4.254 0 0 1 4.25-4.25h83v7.686h-74.5a1.75 1.75 0 1 0 0 3.5h14.5v7.685zm38.75 5.151-5.5-2.1a1.727 1.727 0 0 0 -1.246 0l-5.5 2.1v-12.836h12.246zm3.5-5.151v-7.685h40.75v7.685zm30.883-65.5v27.879a3.254 3.254 0 0 1 -3.25 3.25h-8.063v-34.375h8.063a3.254 3.254 0 0 1 3.25 3.25zm-94.446 15.692h64.136a1.75 1.75 0 0 0 0-3.5h-64.136v-5.125h44.657a1.75 1.75 0 1 0 0-3.5h-51.344a.251.251 0 0 1 -.25-.25v-6.313a.25.25 0 0 1 .25-.25h86.32v6.813h-10.039a1.75 1.75 0 0 0 0 3.5h10.039v13.75h-79.633zm-6.687 15.435a.25.25 0 0 1 -.25-.25v-6.31a.25.25 0 0 1 .25-.25h86.32v6.81z"/></g></g></svg>